<svg class="" xmlns="http://www.w3.org/2000/svg" width="24" height="24" viewBox="0 0 24 26" fill="none" aria-labelledby="Cart">
              <title id="Cart">Cart</title>
              <path d="M7.97555 21.8867H8" stroke="currentColor" stroke-width="1.5" stroke-linecap="round"></path>
              <path d="M17.9756 21.8867H18" stroke="currentColor" stroke-width="1.5" stroke-linecap="round"></path>
              <path d="M19.9945 6.13672C19.5802 6.13672 19.2445 6.47251 19.2445 6.88672C19.2445 7.30093 19.5802 7.63672 19.9945 7.63672V6.13672ZM21.9447 9.32996L22.6761 9.49618V9.49618L21.9447 9.32996ZM20.3538 16.33L21.0852 16.4962L20.3538 16.33ZM2 2.13672C1.58579 2.13672 1.25 2.47251 1.25 2.88672C1.25 3.30093 1.58579 3.63672 2 3.63672V2.13672ZM4.64408 4.32751L3.8978 4.40214L4.64408 4.32751ZM4.4522 3.37172L5.0951 2.98547L4.4522 3.37172ZM4.02216 2.98254L4.34252 2.3044L4.02216 2.98254ZM7.45215 17.8544L7.31797 18.5923L7.45215 17.8544ZM5.77586 15.6453L6.52214 15.5707L5.77586 15.6453ZM5.88762 16.4386L6.6085 16.2316L5.88762 16.4386ZM20 7.63672C20.4142 7.63672 20.75 7.30093 20.75 6.88672C20.75 6.47251 20.4142 6.13672 20 6.13672V7.63672ZM5 6.13672C4.58579 6.13672 4.25 6.47251 4.25 6.88672C4.25 7.30093 4.58579 7.63672 5 7.63672V6.13672ZM21.2134 9.16374L19.6225 16.1637L21.0852 16.4962L22.6761 9.49618L21.2134 9.16374ZM8.2526 18.6367H18.4035V17.1367H8.2526V18.6367ZM19.9945 7.63672C20.7966 7.63672 21.3911 8.38154 21.2134 9.16375L22.6761 9.49618C23.0672 7.77533 21.7592 6.13672 19.9945 6.13672V7.63672ZM19.6225 16.1637C19.4931 16.7329 18.9872 17.1367 18.4035 17.1367V18.6367C19.6875 18.6367 20.8006 17.7482 21.0852 16.4962L19.6225 16.1637ZM6.52214 15.5707L5.39036 4.25289L3.8978 4.40214L5.02958 15.7199L6.52214 15.5707ZM3.05202 2.13672H2V3.63672H3.05202V2.13672ZM5.39036 4.25289C5.36607 4.01005 5.34411 3.7851 5.31057 3.59829C5.27538 3.40235 5.21863 3.19109 5.0951 2.98547L3.80931 3.75797C3.8013 3.74463 3.81504 3.75677 3.83418 3.8634C3.85497 3.97916 3.87118 4.13597 3.8978 4.40214L5.39036 4.25289ZM3.05202 3.63672C3.31952 3.63672 3.47716 3.63725 3.59442 3.64642C3.70242 3.65486 3.71587 3.66732 3.7018 3.66067L4.34252 2.3044C4.12563 2.20194 3.90977 2.16649 3.7113 2.15098C3.52208 2.13619 3.29607 2.13672 3.05202 2.13672V3.63672ZM5.0951 2.98547C4.91703 2.68909 4.65516 2.45209 4.34253 2.3044L3.7018 3.66067C3.74646 3.68177 3.78387 3.71563 3.80931 3.75797L5.0951 2.98547ZM8.2526 17.1367C7.80545 17.1367 7.68069 17.1337 7.58633 17.1165L7.31797 18.5923C7.57852 18.6397 7.8691 18.6367 8.2526 18.6367V17.1367ZM5.02958 15.7199C5.06774 16.1015 5.09366 16.391 5.16673 16.6455L6.6085 16.2316C6.58204 16.1394 6.56663 16.0156 6.52214 15.5707L5.02958 15.7199ZM7.58633 17.1165C7.11864 17.0315 6.73966 16.6885 6.6085 16.2316L5.16673 16.6455C5.45529 17.6507 6.28904 18.4052 7.31797 18.5923L7.58633 17.1165ZM20 6.13672H5V7.63672H20V6.13672Z" fill="currentColor"></path>
            </svg>