<svg width="24" height="24" viewBox="0 0 24 24" fill="none" xmlns="http://www.w3.org/2000/svg">
<path d="M8.28513 20.2031H8.30769" stroke="black" stroke-width="1.38462" stroke-linecap="round"/>
<path d="M17.5159 20.2031H17.5385" stroke="black" stroke-width="1.38462" stroke-linecap="round"/>
<path d="M19.3795 5.66466C18.9971 5.66466 18.6872 5.97462 18.6872 6.35697C18.6872 6.73932 18.9971 7.04928 19.3795 7.04928V5.66466ZM2.76923 1.97236C2.38688 1.97236 2.07692 2.28232 2.07692 2.66466C2.07692 3.04701 2.38688 3.35697 2.76923 3.35697V1.97236ZM19.3846 7.04928C19.767 7.04928 20.0769 6.73932 20.0769 6.35697C20.0769 5.97462 19.767 5.66466 19.3846 5.66466V7.04928ZM5.53846 5.66466C5.15611 5.66466 4.84615 5.97462 4.84615 6.35697C4.84615 6.73932 5.15611 7.04928 5.53846 7.04928V5.66466ZM20.5047 8.45884L19.0361 14.9203L20.3863 15.2273L21.8549 8.7657L20.5047 8.45884ZM8.54086 17.2031H17.9109V15.8185H8.54086V17.2031ZM19.3795 7.04928C20.1199 7.04928 20.6687 7.7368 20.5047 8.45884L21.8549 8.7657C22.2159 7.17723 21.0085 5.66466 19.3795 5.66466V7.04928ZM19.0361 14.9203C18.9167 15.4458 18.4497 15.8185 17.9109 15.8185V17.2031C19.0962 17.2031 20.1236 16.383 20.3863 15.2273L19.0361 14.9203ZM6.94351 14.373L5.89879 3.92574L4.52104 4.06351L5.56576 14.5107L6.94351 14.373ZM3.74032 1.97236H2.76923V3.35697H3.74032V1.97236ZM5.89879 3.92574C5.87637 3.70158 5.8561 3.49394 5.82514 3.3215C5.79265 3.14063 5.74027 2.94562 5.62624 2.75582L4.43936 3.4689C4.43197 3.45658 4.44465 3.46779 4.46232 3.56622C4.48151 3.67307 4.49647 3.81782 4.52104 4.06351L5.89879 3.92574ZM3.74032 3.35697C3.98725 3.35697 4.13276 3.35746 4.241 3.36593C4.34069 3.37372 4.35311 3.38522 4.34012 3.37908L4.93155 2.12714C4.73135 2.03256 4.53209 1.99984 4.34889 1.98552C4.17422 1.97187 3.9656 1.97236 3.74032 1.97236V3.35697ZM5.62624 2.75582C5.46187 2.48224 5.22014 2.26347 4.93155 2.12714L4.34012 3.37908C4.38134 3.39856 4.41588 3.42981 4.43936 3.4689L5.62624 2.75582ZM8.54086 15.8185C8.1281 15.8185 8.01294 15.8157 7.92584 15.7998L7.67812 17.1621C7.91863 17.2059 8.18686 17.2031 8.54086 17.2031V15.8185ZM5.56576 14.5107C5.60099 14.8629 5.62491 15.1302 5.69236 15.3651L7.02323 14.983C6.9988 14.8979 6.98458 14.7836 6.94351 14.373L5.56576 14.5107ZM7.92584 15.7998C7.49413 15.7214 7.1443 15.4048 7.02323 14.983L5.69236 15.3651C5.95873 16.293 6.72834 16.9894 7.67812 17.1621L7.92584 15.7998ZM19.3846 5.66466H5.53846V7.04928H19.3846V5.66466Z" fill="black"/>
</svg>
