<svg width="24" height="24" viewBox="0 0 24 24" fill="none" xmlns="http://www.w3.org/2000/svg">
<path d="M3.9463 20.0253C3.8481 20.3948 4.06805 20.774 4.43757 20.8722C4.8071 20.9704 5.18626 20.7505 5.28447 20.3809L3.9463 20.0253ZM18.7156 20.3809C18.8137 20.7505 19.1929 20.9704 19.5624 20.8722C19.9319 20.774 20.1519 20.3948 20.0537 20.0253L18.7156 20.3809ZM5.28447 20.3809C6.0488 17.5049 8.75517 15.357 12 15.357V13.9723C8.1391 13.9723 4.87484 16.5313 3.9463 20.0253L5.28447 20.3809ZM12 15.357C15.2448 15.357 17.9512 17.5049 18.7156 20.3809L20.0537 20.0253C19.1251 16.5313 15.8609 13.9723 12 13.9723V15.357ZM15 7.28005C15 8.9369 13.6568 10.28 12 10.28V11.6646C14.4216 11.6646 16.3846 9.70163 16.3846 7.28005H15ZM12 10.28C10.3432 10.28 9 8.9369 9 7.28005H7.61538C7.61538 9.70163 9.57845 11.6646 12 11.6646V10.28ZM9 7.28005C9 5.62319 10.3432 4.28005 12 4.28005V2.89543C9.57845 2.89543 7.61538 4.8585 7.61538 7.28005H9ZM12 4.28005C13.6568 4.28005 15 5.62319 15 7.28005H16.3846C16.3846 4.8585 14.4216 2.89543 12 2.89543V4.28005Z" fill="black"/>
</svg>
