<svg class="" xmlns="http://www.w3.org/2000/svg" width="24" height="24" viewBox="0 0 24 26" fill="none" aria-labelledby="Account">
              <title id="Account">Account</title>
              <path d="M3.27516 21.6941C3.16877 22.0944 3.40705 22.5052 3.80737 22.6116C4.20769 22.7179 4.61845 22.4797 4.72484 22.0793L3.27516 21.6941ZM19.2752 22.0793C19.3815 22.4797 19.7923 22.7179 20.1926 22.6116C20.5929 22.5052 20.8312 22.0944 20.7248 21.6941L19.2752 22.0793ZM4.72484 22.0793C5.55287 18.9636 8.48477 16.6367 12 16.6367V15.1367C7.81736 15.1367 4.28108 17.9089 3.27516 21.6941L4.72484 22.0793ZM12 16.6367C15.5152 16.6367 18.4471 18.9636 19.2752 22.0793L20.7248 21.6941C19.7189 17.9089 16.1826 15.1367 12 15.1367V16.6367ZM15.25 7.88672C15.25 9.68164 13.7949 11.1367 12 11.1367V12.6367C14.6234 12.6367 16.75 10.5101 16.75 7.88672H15.25ZM12 11.1367C10.2051 11.1367 8.75 9.68164 8.75 7.88672H7.25C7.25 10.5101 9.37665 12.6367 12 12.6367V11.1367ZM8.75 7.88672C8.75 6.09179 10.2051 4.63672 12 4.63672V3.13672C9.37665 3.13672 7.25 5.26337 7.25 7.88672H8.75ZM12 4.63672C13.7949 4.63672 15.25 6.09179 15.25 7.88672H16.75C16.75 5.26337 14.6234 3.13672 12 3.13672V4.63672Z" fill="currentColor" stroke-width="1.5"></path>
            </svg>